<svg xmlns="http://www.w3.org/2000/svg" xmlns:xlink="http://www.w3.org/1999/xlink" width="485pt" height="548pt" viewBox="0.00 0.00 485.23 548.00">
<g id="graph0" class="graph" transform="scale(1 1) rotate(0) translate(4 544)">
<title>Flow</title>
<polygon fill="white" stroke="none" points="-4,4 -4,-544 481.23,-544 481.23,4 -4,4"/>
<!-- A -->
<g id="node1" class="node">
<title>A</title>
<polygon fill="none" stroke="black" points="358.95,-540 271.03,-540 271.03,-504 358.95,-504 358.95,-540"/>
<text text-anchor="middle" x="314.99" y="-517.8" font-family="Times,serif" font-size="14.00">Input Source</text>
</g>
<!-- B -->
<g id="node2" class="node">
<title>B</title>
<polygon fill="none" stroke="black" points="396.87,-468 233.11,-468 233.11,-432 396.87,-432 396.87,-468"/>
<text text-anchor="middle" x="314.99" y="-445.8" font-family="Times,serif" font-size="14.00">Preprocessing and Parsing</text>
</g>
<!-- A&#45;&gt;B -->
<g id="edge1" class="edge">
<title>A-&gt;B</title>
<path fill="none" stroke="black" d="M314.99,-503.7C314.99,-496.41 314.99,-487.73 314.99,-479.54"/>
<polygon fill="black" stroke="black" points="318.49,-479.62 314.99,-469.62 311.49,-479.62 318.49,-479.62"/>
</g>
<!-- C -->
<g id="node3" class="node">
<title>C</title>
<polygon fill="none" stroke="black" points="391.6,-396 238.38,-396 238.38,-360 391.6,-360 391.6,-396"/>
<text text-anchor="middle" x="314.99" y="-373.8" font-family="Times,serif" font-size="14.00">Inference Engine - LLM</text>
</g>
<!-- B&#45;&gt;C -->
<g id="edge2" class="edge">
<title>B-&gt;C</title>
<path fill="none" stroke="black" d="M314.99,-431.7C314.99,-424.41 314.99,-415.73 314.99,-407.54"/>
<polygon fill="black" stroke="black" points="318.49,-407.62 314.99,-397.62 311.49,-407.62 318.49,-407.62"/>
</g>
<!-- D -->
<g id="node4" class="node">
<title>D</title>
<polygon fill="none" stroke="black" points="444.47,-324 185.51,-324 185.51,-288 444.47,-288 444.47,-324"/>
<text text-anchor="middle" x="314.99" y="-301.8" font-family="Times,serif" font-size="14.00">Tag Generation - Scoped Fallacy Detection</text>
</g>
<!-- C&#45;&gt;D -->
<g id="edge3" class="edge">
<title>C-&gt;D</title>
<path fill="none" stroke="black" d="M314.99,-359.7C314.99,-352.41 314.99,-343.73 314.99,-335.54"/>
<polygon fill="black" stroke="black" points="318.49,-335.62 314.99,-325.62 311.49,-335.62 318.49,-335.62"/>
</g>
<!-- E -->
<g id="node5" class="node">
<title>E</title>
<polygon fill="none" stroke="black" points="390.05,-252 239.93,-252 239.93,-216 390.05,-216 390.05,-252"/>
<text text-anchor="middle" x="314.99" y="-229.8" font-family="Times,serif" font-size="14.00">UI Overlay and Display</text>
</g>
<!-- D&#45;&gt;E -->
<g id="edge4" class="edge">
<title>D-&gt;E</title>
<path fill="none" stroke="black" d="M314.99,-287.7C314.99,-280.41 314.99,-271.73 314.99,-263.54"/>
<polygon fill="black" stroke="black" points="318.49,-263.62 314.99,-253.62 311.49,-263.62 318.49,-263.62"/>
</g>
<!-- F -->
<g id="node6" class="node">
<title>F</title>
<polygon fill="none" stroke="black" points="382.85,-180 247.13,-180 247.13,-144 382.85,-144 382.85,-180"/>
<text text-anchor="middle" x="314.99" y="-157.8" font-family="Times,serif" font-size="14.00">User Feedback Layer</text>
</g>
<!-- E&#45;&gt;F -->
<g id="edge5" class="edge">
<title>E-&gt;F</title>
<path fill="none" stroke="black" d="M314.99,-215.7C314.99,-208.41 314.99,-199.73 314.99,-191.54"/>
<polygon fill="black" stroke="black" points="318.49,-191.62 314.99,-181.62 311.49,-191.62 318.49,-191.62"/>
</g>
<!-- G -->
<g id="node7" class="node">
<title>G</title>
<polygon fill="none" stroke="black" points="320.98,-108 125,-108 125,-72 320.98,-72 320.98,-108"/>
<text text-anchor="middle" x="222.99" y="-85.8" font-family="Times,serif" font-size="14.00">Telemetry Aggregator - Non-ID</text>
</g>
<!-- F&#45;&gt;G -->
<g id="edge6" class="edge">
<title>F-&gt;G</title>
<path fill="none" stroke="black" d="M292.25,-143.7C280.97,-135.11 267.16,-124.61 254.85,-115.24"/>
<polygon fill="black" stroke="black" points="257.07,-112.53 246.99,-109.26 252.83,-118.1 257.07,-112.53"/>
</g>
<!-- G_note -->
<g id="node9" class="node">
<title>G_note</title>
<polygon fill="none" stroke="black" stroke-dasharray="5,2" points="471.23,-108 338.75,-108 338.75,-72 477.23,-72 477.23,-102 471.23,-108"/>
<polyline fill="none" stroke="black" stroke-dasharray="5,2" points="471.23,-108 471.23,-102"/>
<polyline fill="none" stroke="black" stroke-dasharray="5,2" points="477.23,-102 471.23,-102"/>
<text text-anchor="middle" x="407.99" y="-85.8" font-family="Times,serif" font-size="14.00">Optional Aggregation</text>
</g>
<!-- F&#45;&gt;G_note -->
<g id="edge8" class="edge">
<title>F-&gt;G_note</title>
<path fill="none" stroke="black" stroke-dasharray="5,2" d="M337.98,-143.7C352.29,-132.93 370.62,-119.12 384.94,-108.35"/>
</g>
<!-- H -->
<g id="node8" class="node">
<title>H</title>
<polygon fill="none" stroke="black" points="253.98,-36 0,-36 0,0 253.98,0 253.98,-36"/>
<text text-anchor="middle" x="126.99" y="-13.8" font-family="Times,serif" font-size="14.00">Heuristic Tuning and Prompt Adjustments</text>
</g>
<!-- G&#45;&gt;H -->
<g id="edge7" class="edge">
<title>G-&gt;H</title>
<path fill="none" stroke="black" d="M199.26,-71.7C187.37,-63.03 172.8,-52.4 159.85,-42.96"/>
<polygon fill="black" stroke="black" points="162.14,-40.3 152,-37.24 158.02,-45.96 162.14,-40.3"/>
</g>
<!-- H_note -->
<g id="node10" class="node">
<title>H_note</title>
<polygon fill="none" stroke="black" stroke-dasharray="5,2" points="360.07,-36 271.91,-36 271.91,0 366.07,0 366.07,-30 360.07,-36"/>
<polyline fill="none" stroke="black" stroke-dasharray="5,2" points="360.07,-36 360.07,-30"/>
<polyline fill="none" stroke="black" stroke-dasharray="5,2" points="366.07,-30 360.07,-30"/>
<text text-anchor="middle" x="318.99" y="-13.8" font-family="Times,serif" font-size="14.00">Periodic Only</text>
</g>
<!-- G&#45;&gt;H_note -->
<g id="edge9" class="edge">
<title>G-&gt;H_note</title>
<path fill="none" stroke="black" stroke-dasharray="5,2" d="M246.72,-71.7C261.49,-60.93 280.42,-47.12 295.2,-36.35"/>
</g>
</g>
</svg>