<svg xmlns="http://www.w3.org/2000/svg" xmlns:xlink="http://www.w3.org/1999/xlink" width="568pt" height="353pt" viewBox="0.00 0.00 568.00 352.80">
<g id="graph0" class="graph" transform="scale(1 1) rotate(0) translate(4 348.8)">
<title>FallacyTagScope</title>
<polygon fill="white" stroke="none" points="-4,4 -4,-348.8 564,-348.8 564,4 -4,4"/>
<g id="clust1" class="cluster">
<title>cluster_inside</title>
<polygon fill="#f0f0f0" stroke="#cccccc" points="8,-8 8,-336.8 276,-336.8 276,-8 8,-8"/>
<text text-anchor="middle" x="142" y="-314.8" font-family="Helvetica,sans-Serif" font-size="20.00">In Scope</text>
</g>
<g id="clust2" class="cluster">
<title>cluster_outside</title>
<polygon fill="none" stroke="#ef9a9a" stroke-dasharray="5,2" points="284,-8 284,-336.8 552,-336.8 552,-8 284,-8"/>
<text text-anchor="middle" x="418" y="-314.8" font-family="Helvetica,sans-Serif" font-size="20.00">Out of Scope</text>
</g>
<!-- inside1 -->
<g id="node1" class="node">
<title>inside1</title>
<polygon fill="#a5d6a7" stroke="black" points="268,-296.8 16,-296.8 16,-253.6 268,-253.6 268,-296.8"/>
<text text-anchor="middle" x="142" y="-271" font-family="Helvetica,sans-Serif" font-size="14.00">Sentence-level analysis</text>
</g>
<!-- inside2 -->
<g id="node2" class="node">
<title>inside2</title>
<polygon fill="#a5d6a7" stroke="black" points="268,-217.6 16,-217.6 16,-174.4 268,-174.4 268,-217.6"/>
<text text-anchor="middle" x="142" y="-191.8" font-family="Helvetica,sans-Serif" font-size="14.00">Surface structure detection</text>
</g>
<!-- inside1&#45;&gt;inside2 -->
<!-- inside3 -->
<g id="node3" class="node">
<title>inside3</title>
<polygon fill="#a5d6a7" stroke="black" points="268,-138.4 16,-138.4 16,-95.2 268,-95.2 268,-138.4"/>
<text text-anchor="middle" x="142" y="-121" font-family="Helvetica,sans-Serif" font-size="14.00">Probabilistic tagging</text>
<text text-anchor="middle" x="142" y="-104.2" font-family="Helvetica,sans-Serif" font-size="14.00">(e.g., 'Possible false dilemma')</text>
</g>
<!-- inside2&#45;&gt;inside3 -->
<!-- inside4 -->
<g id="node4" class="node">
<title>inside4</title>
<polygon fill="#a5d6a7" stroke="black" points="268,-59.2 16,-59.2 16,-16 268,-16 268,-59.2"/>
<text text-anchor="middle" x="142" y="-33.4" font-family="Helvetica,sans-Serif" font-size="14.00">No truth or intent judgment</text>
</g>
<!-- inside3&#45;&gt;inside4 -->
<!-- outside1 -->
<g id="node5" class="node">
<title>outside1</title>
<polygon fill="#ef9a9a" stroke="black" points="544,-296.8 292,-296.8 292,-253.6 544,-253.6 544,-296.8"/>
<text text-anchor="middle" x="418" y="-279.4" font-family="Helvetica,sans-Serif" font-size="14.00">Fact-checking</text>
<text text-anchor="middle" x="418" y="-262.6" font-family="Helvetica,sans-Serif" font-size="14.00">or verifying truth</text>
</g>
<!-- outside2 -->
<g id="node6" class="node">
<title>outside2</title>
<polygon fill="#ef9a9a" stroke="black" points="544,-217.6 292,-217.6 292,-174.4 544,-174.4 544,-217.6"/>
<text text-anchor="middle" x="418" y="-191.8" font-family="Helvetica,sans-Serif" font-size="14.00">Interpreting speaker intent</text>
</g>
<!-- outside1&#45;&gt;outside2 -->
<!-- outside3 -->
<g id="node7" class="node">
<title>outside3</title>
<polygon fill="#ef9a9a" stroke="black" points="544,-138.4 292,-138.4 292,-95.2 544,-95.2 544,-138.4"/>
<text text-anchor="middle" x="418" y="-112.6" font-family="Helvetica,sans-Serif" font-size="14.00">Global argument parsing</text>
</g>
<!-- outside2&#45;&gt;outside3 -->
<!-- outside4 -->
<g id="node8" class="node">
<title>outside4</title>
<polygon fill="#ef9a9a" stroke="black" points="544,-59.2 292,-59.2 292,-16 544,-16 544,-59.2"/>
<text text-anchor="middle" x="418" y="-33.4" font-family="Helvetica,sans-Serif" font-size="14.00">Content moderation or enforcement</text>
</g>
<!-- outside3&#45;&gt;outside4 -->
</g>
</svg>