<svg xmlns="http://www.w3.org/2000/svg" xmlns:xlink="http://www.w3.org/1999/xlink" width="612pt" height="346pt" viewBox="0.00 0.00 612.49 345.75">
<g id="graph0" class="graph" transform="scale(1 1) rotate(0) translate(4 341.75)">
<title>FallacyTagConstraints</title>
<polygon fill="white" stroke="none" points="-4,4 -4,-341.75 608.49,-341.75 608.49,4 -4,4"/>
<!-- Ambiguity -->
<g id="node1" class="node">
<title>Ambiguity</title>
<ellipse fill="#f2f2f2" stroke="#4d4d4d" cx="86.97" cy="-282.23" rx="86.97" ry="42.99"/>
<text text-anchor="middle" x="86.97" y="-298.73" font-family="Helvetica,sans-Serif" font-size="11.00">Interpretive Ambiguity</text>
<text text-anchor="middle" x="86.97" y="-285.53" font-family="Helvetica,sans-Serif" font-size="11.00">• Borderline cases</text>
<text text-anchor="middle" x="86.97" y="-272.33" font-family="Helvetica,sans-Serif" font-size="11.00">• Cultural divergence</text>
<text text-anchor="middle" x="86.97" y="-259.13" font-family="Helvetica,sans-Serif" font-size="11.00">• Genre variation</text>
</g>
<!-- Misfire -->
<g id="node4" class="node">
<title>Misfire</title>
<polygon fill="white" stroke="#7f7f7f" stroke-dasharray="5,2" points="374.33,-337.75 193.13,-337.75 193.13,-301.75 380.33,-301.75 380.33,-331.75 374.33,-337.75"/>
<polyline fill="none" stroke="#7f7f7f" stroke-dasharray="5,2" points="374.33,-337.75 374.33,-331.75"/>
<polyline fill="none" stroke="#7f7f7f" stroke-dasharray="5,2" points="380.33,-331.75 374.33,-331.75"/>
<text text-anchor="middle" x="286.73" y="-323.05" font-family="Helvetica,sans-Serif" font-size="11.00">Misfire Risk</text>
<text text-anchor="middle" x="286.73" y="-309.85" font-family="Helvetica,sans-Serif" font-size="11.00">(tag feels confusing or provocative)</text>
</g>
<!-- Ambiguity&#45;&gt;Misfire -->
<g id="edge1" class="edge">
<title>Ambiguity-&gt;Misfire</title>
<path fill="none" stroke="#7f7f7f" d="M168.8,-297.6C176.67,-299.07 184.69,-300.58 192.66,-302.08"/>
</g>
<!-- SilenceRisk -->
<g id="node6" class="node">
<title>SilenceRisk</title>
<polygon fill="white" stroke="#7f7f7f" stroke-dasharray="5,2" points="168.52,-96.53 3.84,-96.53 3.84,-60.53 174.52,-60.53 174.52,-90.53 168.52,-96.53"/>
<polyline fill="none" stroke="#7f7f7f" stroke-dasharray="5,2" points="168.52,-96.53 168.52,-90.53"/>
<polyline fill="none" stroke="#7f7f7f" stroke-dasharray="5,2" points="174.52,-90.53 168.52,-90.53"/>
<text text-anchor="middle" x="89.18" y="-81.83" font-family="Helvetica,sans-Serif" font-size="11.00">Silence Risk</text>
<text text-anchor="middle" x="89.18" y="-68.63" font-family="Helvetica,sans-Serif" font-size="11.00">(suppression feels like betrayal)</text>
</g>
<!-- Ambiguity&#45;&gt;SilenceRisk -->
<g id="edge6" class="edge">
<title>Ambiguity-&gt;SilenceRisk</title>
<path fill="none" stroke="#7f7f7f" d="M87.44,-238.78C87.92,-194.61 88.64,-128.31 88.99,-96.63"/>
</g>
<!-- ViableSpace -->
<g id="node7" class="node">
<title>ViableSpace</title>
<path fill="#fff7d6" stroke="#333333" stroke-width="2" d="M339.66,-199.51C339.66,-199.51 239.54,-199.51 239.54,-199.51 233.54,-199.51 227.54,-193.51 227.54,-187.51 227.54,-187.51 227.54,-175.51 227.54,-175.51 227.54,-169.51 233.54,-163.51 239.54,-163.51 239.54,-163.51 339.66,-163.51 339.66,-163.51 345.66,-163.51 351.66,-169.51 351.66,-175.51 351.66,-175.51 351.66,-187.51 351.66,-187.51 351.66,-193.51 345.66,-199.51 339.66,-199.51"/>
<text text-anchor="middle" x="289.6" y="-184.81" font-family="Helvetica,sans-Serif" font-weight="bold" font-size="11.00">Narrow Viable Space</text>
<text text-anchor="middle" x="289.6" y="-171.61" font-family="Helvetica,sans-Serif" font-weight="bold" font-size="11.00">(FallacyTag works here)</text>
</g>
<!-- Ambiguity&#45;&gt;ViableSpace -->
<g id="edge7" class="edge">
<title>Ambiguity-&gt;ViableSpace</title>
<path fill="none" stroke="black" stroke-dasharray="5,2" d="M148.59,-251.6C178.64,-236.67 214.21,-218.98 242.11,-205.12"/>
<polygon fill="black" stroke="black" points="243.65,-208.26 251.05,-200.67 240.53,-201.99 243.65,-208.26"/>
<text text-anchor="middle" x="159.68" y="-213.29" font-family="Times,serif" font-size="14.00" fill="#4d4d4d">Scoped design</text>
</g>
<!-- Perception -->
<g id="node2" class="node">
<title>Perception</title>
<ellipse fill="#f2f2f2" stroke="#4d4d4d" cx="490.73" cy="-283.87" rx="113.77" ry="42.99"/>
<text text-anchor="middle" x="490.73" y="-300.37" font-family="Helvetica,sans-Serif" font-size="11.00">User Perception</text>
<text text-anchor="middle" x="490.73" y="-287.17" font-family="Helvetica,sans-Serif" font-size="11.00">• Misfire &amp; misunderstanding</text>
<text text-anchor="middle" x="490.73" y="-273.97" font-family="Helvetica,sans-Serif" font-size="11.00">• Fallacy inflation</text>
<text text-anchor="middle" x="490.73" y="-260.77" font-family="Helvetica,sans-Serif" font-size="11.00">• User control</text>
</g>
<!-- Perception&#45;&gt;Misfire -->
<g id="edge2" class="edge">
<title>Perception-&gt;Misfire</title>
<path fill="none" stroke="#7f7f7f" d="M387.24,-302.07C385.07,-302.45 382.9,-302.83 380.73,-303.22"/>
</g>
<!-- TrustErosion -->
<g id="node5" class="node">
<title>TrustErosion</title>
<polygon fill="white" stroke="#7f7f7f" stroke-dasharray="5,2" points="564.86,-98.19 414.86,-98.19 414.86,-62.19 570.86,-62.19 570.86,-92.19 564.86,-98.19"/>
<polyline fill="none" stroke="#7f7f7f" stroke-dasharray="5,2" points="564.86,-98.19 564.86,-92.19"/>
<polyline fill="none" stroke="#7f7f7f" stroke-dasharray="5,2" points="570.86,-92.19 564.86,-92.19"/>
<text text-anchor="middle" x="492.86" y="-83.49" font-family="Helvetica,sans-Serif" font-size="11.00">Trust Erosion</text>
<text text-anchor="middle" x="492.86" y="-70.29" font-family="Helvetica,sans-Serif" font-size="11.00">(tags misread, users opt out)</text>
</g>
<!-- Perception&#45;&gt;TrustErosion -->
<g id="edge3" class="edge">
<title>Perception-&gt;TrustErosion</title>
<path fill="none" stroke="#7f7f7f" d="M491.18,-240.42C491.64,-196.26 492.34,-129.97 492.67,-98.29"/>
</g>
<!-- Perception&#45;&gt;ViableSpace -->
<g id="edge8" class="edge">
<title>Perception-&gt;ViableSpace</title>
<path fill="none" stroke="black" stroke-dasharray="5,2" d="M422.35,-249.07C393.93,-234.61 361.66,-218.19 336.06,-205.16"/>
<polygon fill="black" stroke="black" points="337.74,-202.08 327.24,-200.67 334.56,-208.32 337.74,-202.08"/>
<text text-anchor="middle" x="329.1" y="-228.66" font-family="Times,serif" font-size="14.00" fill="#4d4d4d">Invite reflection</text>
</g>
<!-- Legitimacy -->
<g id="node3" class="node">
<title>Legitimacy</title>
<ellipse fill="#f2f2f2" stroke="#4d4d4d" cx="292.63" cy="-42.99" rx="82.21" ry="42.99"/>
<text text-anchor="middle" x="292.63" y="-59.49" font-family="Helvetica,sans-Serif" font-size="11.00">Social Legitimacy</text>
<text text-anchor="middle" x="292.63" y="-46.29" font-family="Helvetica,sans-Serif" font-size="11.00">• Privacy &amp; consent</text>
<text text-anchor="middle" x="292.63" y="-33.09" font-family="Helvetica,sans-Serif" font-size="11.00">• Suppression risk</text>
<text text-anchor="middle" x="292.63" y="-19.89" font-family="Helvetica,sans-Serif" font-size="11.00">• Weaponization</text>
</g>
<!-- Legitimacy&#45;&gt;TrustErosion -->
<g id="edge4" class="edge">
<title>Legitimacy-&gt;TrustErosion</title>
<path fill="none" stroke="#7f7f7f" d="M370.33,-57.43C384.84,-60.12 400.01,-62.94 414.54,-65.64"/>
</g>
<!-- Legitimacy&#45;&gt;SilenceRisk -->
<g id="edge5" class="edge">
<title>Legitimacy-&gt;SilenceRisk</title>
<path fill="none" stroke="#7f7f7f" d="M214.26,-56.68C201.39,-58.93 187.99,-61.27 174.95,-63.55"/>
</g>
<!-- Legitimacy&#45;&gt;ViableSpace -->
<g id="edge9" class="edge">
<title>Legitimacy-&gt;ViableSpace</title>
<path fill="none" stroke="black" stroke-dasharray="5,2" d="M291.68,-86.44C291.21,-107.76 290.66,-132.89 290.24,-151.95"/>
<polygon fill="black" stroke="black" points="286.75,-151.64 290.03,-161.72 293.75,-151.79 286.75,-151.64"/>
<text text-anchor="middle" x="231.55" y="-129" font-family="Times,serif" font-size="14.00" fill="#4d4d4d">Govern transparently</text>
</g>
</g>
</svg>